<svg id="Capa_1" fill ="#ff4d4f" enable-background="new 0 0 512.071 512.071" height="512" viewBox="0 0 512.071 512.071" width="512" xmlns="http://www.w3.org/2000/svg"><g><path d="m486.461 164.725-152.9 152.9-69.57-69.57c-5.863-5.863-15.372-5.838-21.21 0l-238.37 238.37c-9.443 9.443-2.71 25.61 10.6 25.61h482.06c8.28 0 15-6.72 15-15v-321.71c0-13.323-16.186-20.024-25.61-10.6z"/><path d="m25.616 398.212 142.568-142.769c41.507-10.278 75.183-40.605 90.119-80.071l64.641 64.64c5.857 5.858 15.355 5.859 21.213 0l137.903-137.903v12.927c0 8.284 6.716 15 15 15s15-6.716 15-15c0-.877.003-48.325-.002-49.202-.035-8.196-6.697-14.935-14.997-14.935h-49.132c-8.284 0-15 6.716-15 15s6.716 15 15 15h12.914l-127.293 127.293-66.054-66.053c-.43-.43-.885-.818-1.351-1.185.324-3.731.5-7.504.5-11.318 0-71.46-58.14-129.6-129.61-129.6-71.46 0-129.6 58.14-129.6 129.6 0 66.696 50.649 121.781 115.501 128.83l-118.533 118.533c-5.858 5.858-5.858 15.355 0 21.213 5.857 5.858 15.356 5.859 21.213 0zm66.51-230.816c0-8.29 6.72-15 15-15 8.29 0 15 6.71 15 15 0 3.89 3.17 7.06 7.07 7.06h15.69c3.9 0 7.07-3.17 7.07-7.06v-15.7c0-3.89-3.17-7.06-7.07-7.06h-15.69c-20.44 0-37.07-16.63-37.07-37.07v-15.69c0-17.99 12.88-33.03 29.91-36.38v-2.24c0-8.28 6.72-15 15-15 8.29 0 15 6.72 15 15v2.24c17.03 3.35 29.92 18.39 29.92 36.38 0 8.28-6.72 15-15 15-8.29 0-15-6.72-15-15 0-3.9-3.17-7.07-7.07-7.07h-15.69c-3.9 0-7.07 3.17-7.07 7.07v15.69c0 3.9 3.17 7.07 7.07 7.07h15.69c20.44 0 37.07 16.63 37.07 37.06v15.7c0 17.99-12.89 33.03-29.92 36.37v2.24c0 8.29-6.71 15-15 15-8.28 0-15-6.71-15-15v-2.24c-17.03-3.35-29.91-18.38-29.91-36.37z"/></g></svg>